<?xml version="1.0" encoding="UTF-8" standalone="no"?>
<svg width="16px" height="16px" viewBox="0 0 16 16" version="1.1" xmlns="http://www.w3.org/2000/svg" xmlns:xlink="http://www.w3.org/1999/xlink">
    <!-- Generator: Sketch 50.2 (55047) - http://www.bohemiancoding.com/sketch -->
    <title>icons/social/linkedin/white</title>
    <desc>Created with Sketch.</desc>
    <defs></defs>
    <g id="icons/social/linkedin/white" stroke="none" stroke-width="1" fill="none" fill-rule="evenodd">
        <path d="M0.204,15.2891111 L3.63288889,15.2891111 L3.63288889,4.97311111 L0.204,4.97311111 L0.204,15.2891111 Z M1.94088889,0 C0.767333333,0 0,0.77 0,1.78222222 C0,2.77266667 0.745555556,3.56511111 1.89577778,3.56511111 L1.91844444,3.56511111 C3.11466667,3.56511111 3.85844444,2.77266667 3.85844444,1.78222222 C3.836,0.77 3.11466667,0 1.94088889,0 Z M16,9.37333333 L16,15.2891111 L12.5702222,15.2891111 L12.5702222,9.77 C12.5702222,8.38377778 12.0746667,7.43755556 10.8333333,7.43755556 C9.88533333,7.43755556 9.322,8.07466667 9.07377778,8.69177778 C8.98355556,8.91222222 8.96,9.21866667 8.96,9.52777778 L8.96,15.2891111 L5.52955556,15.2891111 C5.52955556,15.2891111 5.57555556,5.94088889 5.52955556,4.97311111 L8.96,4.97311111 L8.96,6.43488889 C8.95311111,6.44622222 8.94355556,6.45755556 8.93755556,6.46866667 L8.96,6.46866667 L8.96,6.43488889 C9.41577778,5.73355556 10.2291111,4.73088889 12.0511111,4.73088889 C14.3082222,4.73088889 16,6.20488889 16,9.37333333 Z" id="Page-1" fill="#FFFFFF"></path>
    </g>
</svg>