<?xml version="1.0" encoding="UTF-8" standalone="no"?>
<svg width="95px" height="45px" viewBox="0 0 95 45" version="1.1" xmlns="http://www.w3.org/2000/svg" xmlns:xlink="http://www.w3.org/1999/xlink">
    <!-- Generator: Sketch 50.2 (55047) - http://www.bohemiancoding.com/sketch -->
    <title>logos/Lightbox/white</title>
    <desc>Created with Sketch.</desc>
    <defs></defs>
    <g id="logos/Lightbox/white" stroke="none" stroke-width="1" fill="none" fill-rule="evenodd">
        <g id="Lightbox-Identity_Grey-Text_Cut_Flat_Amended-Colour" fill="#FFFFFF" fill-rule="nonzero">
            <g id="Group">
                <path d="M42.4778571,22.2404795 L40.0151857,19.7691781 L42.4772429,17.2984932 L40.0145714,14.8278082 L42.4772429,12.3565068 L40.0145714,9.88582192 L37.5519,12.3565068 L30.1638857,4.94260274 L27.7024429,7.41328767 L22.7771,2.47130137 L20.3150429,4.94260274 L22.7771,7.41328767 L15.3890857,14.8278082 L12.9264143,12.3565068 L10.4643571,14.8278082 L12.9264143,17.2984932 L10.4643571,19.7697945 L8.00168571,17.2984932 L5.53962857,19.7697945 L8.00168571,22.2404795 L8.00168571,22.2410959 L10.4637429,24.7117808 L8.00168571,27.1830822 L10.4637429,29.6543836 L12.9264143,27.1830822 L17.8517571,32.1256849 L15.3897,34.5969863 L17.8523714,37.0682877 L15.3903143,39.539589 L17.8523714,42.0108904 L20.3150429,39.539589 L22.7777143,42.0108904 L30.1651143,34.5982192 L32.6271714,37.0689041 L35.0898429,34.5976027 L37.5525143,37.0695205 L40.0151857,34.5982192 L37.5525143,32.1263014 L42.4778571,27.1836986 L40.0145714,24.7130137 L42.4778571,22.2404795 Z M20.3138143,19.7697945 L27.7012143,12.3565068 L35.0886143,19.7697945 L32.6259429,22.2404795 L27.7006,17.2978767 L22.7752571,22.2404795 L20.3138143,19.7697945 Z M27.7018286,32.1256849 L25.2397714,29.6543836 L25.2403857,29.6537671 L22.7783286,27.1830822 L20.3156571,24.7117808 L22.7777143,22.2404795 L27.7030571,27.1830822 L32.6284,22.2404795 L35.0910714,24.7117808 L30.1651143,29.6543836 L28.6275571,31.1973288 L27.7018286,32.1256849 Z" id="Shape"></path>
            </g>
            <g id="Group" transform="translate(46.000000, 17.000000)">
                <path d="M6.6682875,1.06654545 C6.6682875,0.792272727 6.7405625,0.581636364 6.8851125,0.433363636 C7.0296625,0.285090909 7.2354625,0.211272727 7.50435,0.211272727 C7.7634375,0.211272727 7.9655625,0.285090909 8.1101125,0.433363636 C8.25405,0.581 8.3269375,0.792272727 8.3269375,1.06654545 C8.3269375,1.32745455 8.2546625,1.533 8.1101125,1.68318182 C7.9655625,1.83272727 7.7634375,1.90845455 7.50435,1.90845455 C7.236075,1.90845455 7.030275,1.83336364 6.8851125,1.68318182 C6.7405625,1.533 6.6682875,1.32745455 6.6682875,1.06654545 Z M8.232,10.1958182 L6.755875,10.1958182 L6.755875,2.97881818 L8.232,2.97881818 L8.232,10.1958182 Z" id="Shape"></path>
                <path d="M15.56485,2.97881818 L15.56485,3.82072727 L14.377825,4.04918182 C14.48685,4.20127273 14.5768875,4.38836364 14.6479375,4.61045455 C14.7189875,4.83254545 14.7545125,5.06736364 14.7545125,5.31490909 C14.7545125,6.05881818 14.507675,6.64363636 14.014,7.07 C13.5191,7.49636364 12.839225,7.71018182 11.9725375,7.71018182 C11.7508125,7.71018182 11.5499125,7.693 11.3698375,7.658 C11.0513375,7.86163636 10.8927,8.10154545 10.8927,8.37518182 C10.8927,8.54063636 10.9668125,8.66472727 11.11565,8.74745455 C11.263875,8.83018182 11.53705,8.87090909 11.935175,8.87090909 L13.1473125,8.87090909 C13.9141625,8.87090909 14.495425,9.04145455 14.8941625,9.38063636 C15.2910625,9.71981818 15.4907375,10.2091818 15.4907375,10.8487273 C15.4907375,11.6664545 15.1661125,12.2970909 14.517475,12.7412727 C13.8676125,13.1848182 12.929875,13.4069091 11.70365,13.4069091 C10.756725,13.4069091 10.0345875,13.2331818 9.536625,12.8850909 C9.0386625,12.537 8.789375,12.0412727 8.789375,11.3972727 C8.789375,10.9537273 8.924125,10.5808182 9.1942375,10.2779091 C9.4637375,9.97563636 9.8422625,9.76563636 10.327975,9.64854545 C10.1313625,9.56136364 9.96905,9.42136364 9.8410375,9.22790909 C9.7136375,9.03445455 9.6499375,8.83081818 9.6499375,8.61763636 C9.6499375,8.34781818 9.722825,8.12 9.869825,7.93227273 C10.0156,7.74581818 10.23365,7.56063636 10.52275,7.378 C10.1619875,7.217 9.8704375,6.95545455 9.6462625,6.59209091 C9.4220875,6.22872727 9.31,5.80363636 9.31,5.31618182 C9.31,4.53345455 9.54765,3.92636364 10.02295,3.49554545 C10.4976375,3.06472727 11.175675,2.84963636 12.0546125,2.84963636 C12.2506125,2.84963636 12.457025,2.86363636 12.6732375,2.89163636 C12.8888375,2.92027273 13.0505375,2.94954545 13.160175,2.98009091 L15.56485,2.98009091 L15.56485,2.97881818 Z M10.1068625,11.3177273 C10.1068625,11.6486364 10.2501875,11.9031818 10.53745,12.0807273 C10.8241,12.2595455 11.227125,12.3486364 11.746525,12.3486364 C12.550125,12.3486364 13.14915,12.229 13.5429875,11.9903636 C13.936825,11.7504545 14.1334375,11.4335455 14.1334375,11.0370909 C14.1334375,10.724 14.0256375,10.5012727 13.8100375,10.3682727 C13.5944375,10.2352727 13.19325,10.1697273 12.6077,10.1697273 L11.489275,10.1697273 C11.06665,10.1697273 10.731,10.2728182 10.4811,10.4796364 C10.2318125,10.6858182 10.1068625,10.9658182 10.1068625,11.3177273 Z M10.7414125,5.31490909 C10.7414125,5.76736364 10.8535,6.11545455 11.077675,6.35918182 C11.3012375,6.60290909 11.6228,6.72445455 12.0411375,6.72445455 C12.895575,6.72445455 13.3224875,6.25036364 13.3224875,5.30218182 C13.3224875,4.83254545 13.2171375,4.46981818 13.0052125,4.21590909 C12.7939,3.96136364 12.4723375,3.83409091 12.0411375,3.83409091 C11.614225,3.83409091 11.290825,3.96009091 11.0709375,4.21272727 C10.8516625,4.46409091 10.7414125,4.83190909 10.7414125,5.31490909 Z" id="Shape"></path>
                <path d="M31.6913625,2.84836364 C32.5586625,2.84836364 33.233025,3.17481818 33.7175125,3.82709091 C34.200775,4.47936364 34.443325,5.39509091 34.443325,6.57363636 C34.443325,7.75663636 34.198325,8.67872727 33.708325,9.33736364 C33.218325,9.99663636 32.5378375,10.3262727 31.6668625,10.3262727 C30.7873125,10.3262727 30.1049875,9.99790909 29.6198875,9.34054545 L29.5194375,9.34054545 L29.249325,10.1958182 L28.1437625,10.1958182 L28.1437625,0.042 L29.6198875,0.042 L29.6198875,2.45636364 C29.6198875,2.63454545 29.6107,2.89990909 29.594775,3.25245455 C29.577625,3.605 29.5647625,3.829 29.5568,3.92445455 L29.6205,3.92445455 C30.0878375,3.20727273 30.7787375,2.84836364 31.6913625,2.84836364 Z M31.30855,4.10072727 C30.7138125,4.10072727 30.285675,4.28272727 30.0241375,4.64545455 C29.7619875,5.00881818 29.6272375,5.61654545 29.619275,6.46863636 L29.619275,6.573 C29.619275,7.45181818 29.7528,8.08818182 30.021075,8.48209091 C30.2887375,8.876 30.7260625,9.07263636 31.3336625,9.07263636 C31.8567375,9.07263636 32.2536375,8.85754545 32.52375,8.42609091 C32.79325,7.99590909 32.9286125,7.37354545 32.9286125,6.56027273 C32.929225,4.921 32.389,4.10072727 31.30855,4.10072727 Z" id="Shape"></path>
                <path d="M41.6751125,6.57363636 C41.6751125,7.75345455 41.384175,8.673 40.8023,9.33418182 C40.220425,9.99536364 39.4100875,10.3262727 38.3719,10.3262727 C37.7220375,10.3262727 37.1487375,10.1741818 36.6501625,9.86936364 C36.1522,9.56454545 35.7693875,9.128 35.5011125,8.55718182 C35.2328375,7.98763636 35.0993125,7.32645455 35.0993125,6.57363636 C35.0993125,5.404 35.3884125,4.49018182 35.966,3.83345455 C36.5435875,3.17672727 37.3576,2.84836364 38.40865,2.84836364 C39.4137625,2.84836364 40.2094,3.18436364 40.7955625,3.85636364 C41.381725,4.52836364 41.6751125,5.43454545 41.6751125,6.57363636 Z M36.6195375,6.57363636 C36.6195375,8.24027273 37.211825,9.07327273 38.3970125,9.07327273 C39.568725,9.07327273 40.1555,8.24027273 40.1555,6.57363636 C40.1555,4.92545455 39.5644375,4.10072727 38.3835375,4.10072727 C37.7636875,4.10072727 37.3153375,4.31390909 37.03665,4.74027273 C36.7591875,5.16663636 36.6195375,5.77818182 36.6195375,6.57363636 Z" id="Shape"></path>
            </g>
        </g>
    </g>
</svg>